# xmcd CD database file
#
# Track frame offsets:
#	150
#	21025
#	21725
#	29875
#	36625
#	43025
#	47487
#	56862
#	65300
#	74325
#	83612
#	96125
#	102912
#	108087
#	111375
#	117275
#	119325
#	132262
#	138750
#	144912
#	149262
#	153887
#	163962
#	168050
#	181037
#	185087
#	191125
#	196962
#	208887
#	215050
#	221000
#	226837
#	233862
#	240375
#	252112
#	261675
#	263150
#
# Disc length: 3725 seconds
#
# Revision: 3
# Processed by: cddbd v1.5.2PL0 Copyright (c) Steve Scherf et al.
# Submitted via: CDex 1.70beta2
#
DISCID=2e0e8b25
DTITLE=川井憲次 - コレクター・ユイ オリジナル・サウンドトラック Folder.3
DYEAR=2000
DGENRE=Soundtrack
TTITLE0=オープニング:鳥になる時
TTITLE1=学校の情景(その1)
TTITLE2=ひとりぼっちのアイ(ビアノ・ソロ・ヴァージョン)
TTITLE3=ひとりぼっちのアイ(その1)
TTITLE4=だって、やだもん
TTITLE5=ドタバタでいこう!
TTITLE6=バグルスがやってくる
TTITLE7=ダブルコレクター苦戦
TTITLE8=アイのテーマ
TTITLE9=バグルスをやっつけろ!
TTITLE10=悲しみの家
TTITLE11=ひとりぼっちのアイ(その2)
TTITLE12=楽しく行こう!
TTITLE13=楽しく行こう!(その2)
TTITLE14=不思議な異空間(その1)
TTITLE15=学校の情景(その2)
TTITLE16=ユイ・ラブ・メール
TTITLE17=少女のテーマ
TTITLE18=のんびりと…
TTITLE19=悪の魔王をやっつけろ
TTITLE20=ウォーウルフの苦悩
TTITLE21=ユイのために…
TTITLE22=しっぱい、しっぱい
TTITLE23=ハルナの友情
TTITLE24=執事のたくらみ
TTITLE25=ヒール入場(その1)
TTITLE26=ヒール入場(その2)
TTITLE27=ひまわりの夏
TTITLE28=アイの挫折
TTITLE29=ハルナの戦い
TTITLE30=不思議な異空間(その2)
TTITLE31=悪玉、黒川(その1)
TTITLE32=悪玉、黒川(その2)
TTITLE33=トリプルコレクター
TTITLE34=ユイの優しさ
TTITLE35=学校の情景(予告)
TTITLE36=エンディング:レクイエム
EXTD=YEAR: 2000
EXTT0=
EXTT1=
EXTT2=
EXTT3=
EXTT4=
EXTT5=
EXTT6=
EXTT7=
EXTT8=
EXTT9=
EXTT10=
EXTT11=
EXTT12=
EXTT13=
EXTT14=
EXTT15=
EXTT16=
EXTT17=
EXTT18=
EXTT19=
EXTT20=
EXTT21=
EXTT22=
EXTT23=
EXTT24=
EXTT25=
EXTT26=
EXTT27=
EXTT28=
EXTT29=
EXTT30=
EXTT31=
EXTT32=
EXTT33=
EXTT34=
EXTT35=
EXTT36=
PLAYORDER=
